<?xml version="1.0" encoding="utf-8"?>
<!-- Generator: Adobe Illustrator 24.2.1, SVG Export Plug-In . SVG Version: 6.00 Build 0)  -->
<svg version="1.1" id="Layer_1" xmlns="http://www.w3.org/2000/svg" xmlns:xlink="http://www.w3.org/1999/xlink" x="0px" y="0px"
	 viewBox="0 0 195.1 233.9" style="enable-background:new 0 0 195.1 233.9;" xml:space="preserve">
<style type="text/css">
	.st0{fill:#231F20;stroke:#000000;stroke-width:5;stroke-miterlimit:10;}
</style>
<g id="Layer_2_1_">
	<g id="Layer_1-2">
		<path class="st0" d="M194.2,50c-0.4-1.1-1.2-1.9-2.3-2.5l-89-47c-1.6-0.9-3.6-0.8-5.1,0.3L53.4,30.4c-0.2,0.1-0.4,0.2-0.6,0.4
			L2.8,63.8c-0.5,0.3-0.9,0.7-1.2,1.2c-1,1-1.6,2.3-1.6,3.7l1,114c0,1.9,1.1,3.5,2.7,4.4l89.1,46.2c0.7,0.4,1.5,0.6,2.3,0.6
			c0.9,0,1.8-0.3,2.6-0.7c0.7-0.4,1.2-0.9,1.6-1.6l92.6-63.1c1.4-0.9,2.2-2.4,2.2-4.1l1-111.5C195.1,51.9,194.8,50.9,194.2,50z
			 M100.9,10.8l78.9,41.6L142,77.1c-13-6.9-60-32.6-77.1-42.3L100.9,10.8z M54.9,41.3c26.3,14.1,64.6,35.1,78,43l-37.6,25.9
			L15.4,67.5L54.9,41.3z M10.1,77l80,42.3v101.4l-79.1-41L10.1,77z M184.1,161.7l-84,57.2V119l44.7-30.6c1.3-0.7,2.5-1.6,3.6-2.5
			L185,62.2L184.1,161.7z"/>
	</g>
</g>
</svg>
