<?xml version="1.0" encoding="utf-8"?>
<!-- Generator: Adobe Illustrator 24.2.1, SVG Export Plug-In . SVG Version: 6.00 Build 0)  -->
<svg version="1.1" id="Layer_1" xmlns="http://www.w3.org/2000/svg" xmlns:xlink="http://www.w3.org/1999/xlink" x="0px" y="0px"
	 viewBox="0 0 143 142.7" style="enable-background:new 0 0 143 142.7;" xml:space="preserve">
<style type="text/css">
	.st0{fill:none;stroke:#231F20;stroke-width:12;stroke-miterlimit:10;}
</style>
<g id="Layer_2_1_">
	<g id="Layer_1-2">
		<path class="st0" d="M134.5,135.2H8.5c-0.6,0-1-0.4-1-1V71.4c0-0.3,0.1-0.5,0.3-0.7l63-63c0.4-0.4,1-0.4,1.4,0l0,0l63,63
			c0.2,0.2,0.3,0.4,0.3,0.7v62.7C135.5,134.8,135,135.2,134.5,135.2z M73.5,134.2h60c0.6,0,1-0.4,1-1V71.9c0-0.3-0.1-0.5-0.3-0.7
			l-62-61.9c-0.4-0.4-1-0.4-1.4,0l0,0l-62,61.9c-0.2,0.2-0.3,0.4-0.3,0.7v61.3c0,0.6,0.4,1,1,1h60c0.6,0,1-0.4,1-1v-29
			c0-0.6,0.4-1,1-1l0,0c0.6,0,1,0.4,1,1v29C72.5,133.7,72.9,134.2,73.5,134.2z"/>
	</g>
</g>
</svg>
