<svg xmlns="http://www.w3.org/2000/svg" viewBox="0 0 184 214"><defs><style>.cls-1{fill:#231f20;stroke:#231f20;stroke-miterlimit:10;stroke-width:6px;}</style></defs><g id="Layer_2" data-name="Layer 2"><g id="Layer_1-2" data-name="Layer 1"><g id="Layer_2-2" data-name="Layer 2"><g id="Layer_1-2-2" data-name="Layer 1-2"><path class="cls-1" d="M149,34A40.15,40.15,0,0,0,110,3H74A40.15,40.15,0,0,0,35,34,40,40,0,0,0,3,73.13V171a40,40,0,0,0,40,40h98a40,40,0,0,0,40-40V73.13A40,40,0,0,0,149,34ZM74,13h36a30.13,30.13,0,0,1,28.28,20H45.72A30.13,30.13,0,0,1,74,13Zm67,188H43a30,30,0,0,1-30-30h0V73A30,30,0,0,1,43,43h98a30,30,0,0,1,30,30v98a30,30,0,0,1-30,30Z"/></g></g></g></g></svg>